<?xml version="1.0" encoding="UTF-8" standalone="no"?>
<!DOCTYPE svg PUBLIC "-//W3C//DTD SVG 1.1//EN"
 "http://www.w3.org/Graphics/SVG/1.1/DTD/svg11.dtd">
<!-- Generated by graphviz version 12.2.1 (20241206.2353)
 -->
<!-- Title: FA Pages: 1 -->
<svg width="493pt" height="267pt"
 viewBox="0.00 0.00 236.50 128.28" xmlns="http://www.w3.org/2000/svg" xmlns:xlink="http://www.w3.org/1999/xlink">
<g id="graph0" class="graph" transform="scale(2.08333 2.08333) rotate(0) translate(4 124.28)">
<title>FA</title>
<polygon fill="white" stroke="none" points="-4,4 -4,-124.28 232.5,-124.28 232.5,4 -4,4"/>
<!-- q0 -->
<g id="node1" class="node">
<title>q0</title>
<ellipse fill="none" stroke="black" cx="25.99" cy="-42.89" rx="25.99" ry="25.99"/>
<text text-anchor="start" x="19.61" y="-38.84" font-family="Times New Roman,serif" font-size="14.00">q</text>
<text text-anchor="start" x="26.36" y="-38.84" font-family="Times New Roman,serif" baseline-shift="sub" font-size="14.00">0</text>
</g>
<!-- q1 -->
<g id="node2" class="node">
<title>q1</title>
<ellipse fill="none" stroke="black" cx="185.61" cy="-42.89" rx="38.89" ry="38.89"/>
<ellipse fill="none" stroke="black" cx="185.61" cy="-42.89" rx="42.89" ry="42.89"/>
<text text-anchor="start" x="179.24" y="-50.09" font-family="Times New Roman,serif" font-size="14.00">q</text>
<text text-anchor="start" x="185.99" y="-50.09" font-family="Times New Roman,serif" baseline-shift="sub" font-size="14.00">1</text>
<text text-anchor="start" x="182.24" y="-26.59" font-family="Times New Roman,serif" font-size="14.00">0</text>
</g>
<!-- q0&#45;&gt;q1 -->
<g id="edge1" class="edge">
<title>q0&#45;&gt;q1</title>
<path fill="none" stroke="black" d="M52.31,-42.89C73.46,-42.89 104.34,-42.89 130.95,-42.89"/>
<polygon fill="black" stroke="black" points="130.92,-46.39 140.92,-42.89 130.92,-39.39 130.92,-46.39"/>
<text text-anchor="middle" x="97.35" y="-46.09" font-family="Times New Roman,serif" font-size="14.00">[A&#45;Z_a&#45;z]</text>
</g>
<!-- q1&#45;&gt;q1 -->
<g id="edge2" class="edge">
<title>q1&#45;&gt;q1</title>
<path fill="none" stroke="black" d="M169.11,-83C169.68,-94.71 175.18,-103.78 185.61,-103.78 192.46,-103.78 197.18,-99.88 199.78,-93.88"/>
<polygon fill="black" stroke="black" points="203.12,-95 201.8,-84.48 196.27,-93.53 203.12,-95"/>
<text text-anchor="middle" x="185.61" y="-106.98" font-family="Times New Roman,serif" font-size="14.00">[0&#45;9A&#45;Z_a&#45;z]</text>
</g>
</g>
</svg>
